<?xml version="1.0" encoding="utf-8"?>
<svg xmlns="http://www.w3.org/2000/svg" stroke="rgba(85, 222, 85, 1)" viewBox="0 0 32 32" width="64" height="64">
  <path d="M14.519531 4.0097656C14.239531 3.9997656 14 4.2295312 14 4.5195312L14 6.5C14 6.78 14.22 7 14.5 7L14.5 7.0195312C20.73 7.2595312 25.740469 12.27 25.980469 18.5L26 18.5C26 18.78 26.22 19 26.5 19L28.480469 19C28.770469 19 29.000234 18.760469 28.990234 18.480469C28.720234 10.620469 22.379531 4.2797656 14.519531 4.0097656 z M 14.519531 9.0097656C14.239531 8.9997656 14 9.2395313 14 9.5195312L14 11.5C14 11.78 14.22 12 14.5 12L14.5 12.029297C17.97 12.259297 20.740703 15.03 20.970703 18.5L21 18.5C21 18.78 21.22 19 21.5 19L23.480469 19C23.760469 19 24.000234 18.760469 23.990234 18.480469C23.720234 13.380469 19.619531 9.2797656 14.519531 9.0097656 z M 5.5 10C5.22 10 5 10.22 5 10.5L5 21.5C5 25.08 7.92 28 11.5 28C15.08 28 18 25.08 18 21.5C18 17.92 15.08 15 11.5 15C11.22 15 11 15.22 11 15.5L11 18.5C11 18.78 11.22 19 11.5 19C12.88 19 14 20.12 14 21.5C14 22.88 12.88 24 11.5 24C10.12 24 9 22.88 9 21.5L9 10.5C9 10.22 8.78 10 8.5 10L5.5 10 z" fill="#5B5B5B" />
</svg>
