<?xml version="1.0" encoding="utf-8"?>
<svg xmlns="http://www.w3.org/2000/svg" stroke="rgba(85, 222, 85, 1)" viewBox="0 0 50 50" width="500" height="500">
  <path d="M25 2C24.285156 2 23.570313 2.179688 22.933594 2.539063L6.089844 12.003906C4.800781 12.726563 4 14.082031 4 15.535156L4 34.464844C4 35.917969 4.800781 37.273438 6.089844 37.996094L22.933594 47.460938C23.570313 47.820313 24.285156 48 25 48C25.714844 48 26.429688 47.820313 27.066406 47.460938L43.910156 38C45.199219 37.273438 46 35.917969 46 34.464844L46 15.535156C46 14.082031 45.199219 12.726563 43.910156 12.003906L27.066406 2.539063C26.429688 2.179688 25.714844 2 25 2 Z M 25 13C28.78125 13 32.277344 14.753906 34.542969 17.738281L30.160156 20.277344C28.84375 18.835938 26.972656 18 25 18C21.140625 18 18 21.140625 18 25C18 28.859375 21.140625 32 25 32C26.972656 32 28.84375 31.164063 30.160156 29.722656L34.542969 32.261719C32.277344 35.246094 28.78125 37 25 37C18.382813 37 13 31.617188 13 25C13 18.382813 18.382813 13 25 13 Z M 35 20L37 20L37 22L39 22L39 20L41 20L41 22L43 22L43 24L41 24L41 26L43 26L43 28L41 28L41 30L39 30L39 28L37 28L37 30L35 30L35 28L33 28L33 26L35 26L35 24L33 24L33 22L35 22 Z M 37 24L37 26L39 26L39 24Z" fill="#5B5B5B" />
</svg>
