<?xml version="1.0" encoding="utf-8"?>
<svg
  xmlns="http://www.w3.org/2000/svg"
  viewBox="0 0 32 32"
  width="64"
  height="64"
  stroke="rgba(85, 222, 85, 1)"
  stroke-width="1.8"
  stroke-linecap="round"
  stroke-linejoin="round"
>
  <path
    fill="#5B5B5B"
    d="M16 3.5
       C9.1 3.5 3.5 8.3 3.5 14.9
       C3.5 20.1 7.1 24.5 12.1 25.9
       C12.7 26 12.9 25.6 12.9 25.3
       V23.4
       C9.6 24.1 8.9 21.9 8.9 21.9
       C8.4 20.6 7.6 20.2 7.6 20.2
       C6.5 19.5 7.7 19.5 7.7 19.5
       C8.9 19.6 9.6 20.7 9.6 20.7
       C10.7 22.6 12.5 22.1 13.3 21.8
       C13.4 21 13.7 20.5 14.1 20.1
       C11.5 19.8 8.7 18.9 8.7 14.5
       C8.7 13.2 9.2 12.1 10 11.3
       C9.9 11 9.5 9.7 10.1 8
       C10.1 8 11.1 7.7 12.9 9
       C13.8 8.8 14.9 8.7 16 8.7
       C17.1 8.7 18.2 8.8 19.1 9
       C20.9 7.7 21.9 8 21.9 8
       C22.5 9.7 22.1 11 22 11.3
       C22.8 12.1 23.3 13.2 23.3 14.5
       C23.3 18.9 20.5 19.8 17.9 20.1
       C18.4 20.6 18.9 21.6 18.9 23.1
       V25.3
       C18.9 25.6 19.1 26 19.7 25.9
       C24.7 24.5 28.3 20.1 28.3 14.9
       C28.3 8.3 22.9 3.5 16 3.5
       Z"
  />
</svg>
